<?xml version="1.0" standalone="no"?>
<!DOCTYPE svg PUBLIC "-//W3C//DTD SVG 20010904//EN"
 "http://www.w3.org/TR/2001/REC-SVG-20010904/DTD/svg10.dtd">
<svg version="1.0" xmlns="http://www.w3.org/2000/svg"
 width="260.000000pt" height="260.000000pt" viewBox="0 0 260.000000 260.000000"
 preserveAspectRatio="xMidYMid meet">
<metadata>
Created by potrace 1.11, written by Peter Selinger 2001-2013
</metadata>
<g transform="translate(0.000000,260.000000) scale(0.100000,-0.100000)"
fill="#000000" stroke="none">
<path d="M1535 2584 c-27 -7 -61 -15 -75 -18 -14 -2 -54 -11 -90 -20 -116 -27
-234 -55 -260 -60 -14 -2 -68 -14 -120 -26 -52 -12 -121 -28 -154 -35 -32 -7
-64 -19 -72 -27 -11 -11 -14 -86 -14 -396 -1 -210 -3 -382 -6 -382 -3 0 -17 9
-33 21 -85 63 -231 71 -337 19 -227 -111 -259 -429 -59 -582 23 -18 52 -49 63
-70 37 -63 126 -124 209 -144 164 -38 332 52 398 216 16 41 18 83 20 428 1
255 5 386 12 393 6 6 59 21 119 35 152 33 484 105 514 110 73 14 116 26 127
36 10 8 13 52 13 173 0 182 -4 192 -62 181 -18 -3 -43 -8 -56 -11 -22 -4 -23
-2 -21 70 2 108 -11 118 -116 89z"/>
<path d="M2189 2026 c-3 -3 -18 -7 -34 -10 -36 -7 -24 -4 -250 -56 -99 -23
-187 -43 -195 -45 -16 -3 -372 -84 -405 -92 -11 -2 -26 -5 -34 -7 -37 -7 -38
-25 -39 -508 -1 -578 2 -515 -19 -496 -10 9 -36 25 -58 36 -227 113 -500 -67
-489 -323 4 -101 36 -167 120 -251 41 -40 74 -78 74 -83 0 -22 96 -105 149
-130 47 -22 70 -26 141 -26 72 0 93 4 141 27 64 32 132 94 158 147 41 78 43
109 42 585 0 254 2 469 5 478 5 16 67 41 135 53 25 5 76 17 169 40 197 50 353
85 357 81 7 -7 7 -346 0 -352 -2 -3 -22 6 -42 20 -70 48 -178 64 -265 41 -258
-68 -344 -393 -154 -580 25 -25 49 -45 53 -45 5 0 14 -14 21 -31 7 -17 34 -52
59 -78 105 -105 253 -136 382 -78 79 36 133 88 171 165 l33 67 3 628 c3 569 1
631 -13 647 -13 14 -23 16 -46 10 -16 -5 -29 -7 -29 -5 0 3 -11 0 -25 -5 l-25
-10 0 83 c0 51 -5 88 -12 95 -11 11 -70 17 -79 8z"/>
</g>
</svg>
