<svg xmlns="http://www.w3.org/2000/svg" width="60" height="15" viewBox="0 0 60 15">
    <path fill="#FFF" fill-rule="nonzero" d="M9.808 7.92c-.02-1.138.474-2.025 1.478-2.66-.566-.821-1.401-1.283-2.505-1.386-.393-.037-.895.056-1.506.28-.656.243-1.026.364-1.108.364-.174 0-.507-.102-1-.308-.492-.205-.912-.308-1.26-.308-.583.01-1.126.17-1.628.483-.502.313-.903.74-1.204 1.281C.69 6.338.5 7.141.5 8.074c0 .84.141 1.68.424 2.52a8.497 8.497 0 0 0 1.013 2.114c.364.551.685.953.958 1.205.393.392.794.579 1.205.56.264-.01.61-.108 1.04-.295a2.972 2.972 0 0 1 1.204-.265c.374 0 .762.088 1.164.265.447.187.812.28 1.095.28.42-.018.812-.2 1.177-.545a3.32 3.32 0 0 0 .417-.462c.174-.229.34-.462.5-.7.133-.206.258-.416.376-.63.127-.231.239-.47.336-.715a4.05 4.05 0 0 0 .123-.314l.11-.33a3.046 3.046 0 0 1-.918-.63c-.601-.596-.907-1.334-.916-2.211zm9.925 2.497h-.067l-2.78-6.339h-2.182v10.227h1.902V7.682h.089l2.323 5.259h1.334l2.315-5.26h.089v6.624h1.924V4.078h-2.168l-2.78 6.339zM8.083 2.74c.483-.607.725-1.26.725-1.96V.64A.737.737 0 0 0 8.795.5c-.338.019-.696.126-1.075.322a2.98 2.98 0 0 0-.938.742c-.492.589-.739 1.218-.739 1.89v.133a.71.71 0 0 0 .014.133c.757.075 1.433-.252 2.026-.98zm38.832 1.338h2.138v10.227h-2.138V4.078zm8.596 1.626c1.268 0 1.939.974 1.939 2.023h2.05v-.218c0-1.977-1.512-3.625-4.004-3.625-2.67 0-4.262 1.753-4.262 4.742V9.78c0 2.989 1.578 4.72 4.254 4.72 2.56 0 4.012-1.671 4.012-3.529v-.225h-2.05c0 1.057-.656 1.933-1.924 1.933-1.298 0-2.124-.921-2.124-2.892V8.634c0-1.964.833-2.93 2.109-2.93zm-22.653 4.832c0 1.372-.803 2.128-1.983 2.128-1.187 0-1.99-.75-1.99-2.128V4.078H26.76v6.758c0 2.18 1.549 3.664 4.115 3.664 2.558 0 4.114-1.483 4.114-3.664V4.078h-2.13v6.458zm9.205-2.187l-1.526-.345c-.9-.187-1.371-.584-1.371-1.176 0-.787.641-1.281 1.674-1.281 1.165 0 1.747.666 1.799 1.386h1.99c-.021-1.806-1.533-3.065-3.782-3.065-2.13 0-3.812 1.117-3.812 3.125 0 1.738 1.18 2.546 2.596 2.854l1.511.352c1.018.232 1.534.57 1.534 1.266 0 .795-.635 1.334-1.821 1.334-1.276 0-1.947-.674-2.006-1.431H36.8c.03 1.446.988 3.132 3.953 3.132 2.492 0 4.033-1.236 4.033-3.245 0-1.858-1.247-2.585-2.722-2.906z"/>
</svg>
