<svg xmlns="http://www.w3.org/2000/svg" viewBox="0 0 22 21">
  <g fill-rule="evenodd">
    <path d="M19.537 20.083l-9.245-9.137a.975.975 0 0 1 0-1.392L19.537.417a1.456 1.456 0 0 1 2.04 0c.563.557.563 1.46 0 2.016L13.67 10.25l7.909 7.816c.562.557.562 1.46 0 2.017a1.456 1.456 0 0 1-2.04 0" />
    <path d="M2.463 20.083l9.245-9.137a.975.975 0 0 0 0-1.392L2.463.417a1.456 1.456 0 0 0-2.04 0 1.415 1.415 0 0 0 0 2.016L8.33 10.25.422 18.066a1.417 1.417 0 0 0 0 2.017 1.456 1.456 0 0 0 2.04 0" />
  </g>
</svg>
