<svg xmlns="http://www.w3.org/2000/svg" viewBox="0 0 42 41">
  <path fill-rule="evenodd" stroke-width="2.45" d="M21.054 39c-.924-.91-1.594-1.566-2.009-1.971-2.783-2.716-5.5-5.492-8.042-8.43-2.225-2.57-4.316-5.237-6.069-8.146-.887-1.472-1.667-2.996-2.226-4.62-.361-1.05-.643-2.117-.696-3.227-.083-1.773.265-3.474.975-5.1.681-1.563 1.69-2.885 3.105-3.881 2.258-1.59 4.76-1.902 7.413-1.293 1.772.407 3.294 1.287 4.645 2.467 1.018.888 1.89 1.9 2.678 2.987.061.084.126.166.197.259l.16-.215c.697-.97 1.464-1.885 2.347-2.7.985-.909 2.079-1.66 3.32-2.197a11.301 11.301 0 0 1 3.434-.87c.697-.067 1.397-.103 2.094.008 1.651.261 3.07.994 4.28 2.106 2.157 1.98 3.144 4.484 3.323 7.328.108 1.713-.304 3.343-.902 4.933-.85 2.26-2.066 4.331-3.425 6.325-2.17 3.181-4.679 6.097-7.31 8.915-2.103 2.25-4.314 4.396-6.52 6.546-.262.255-.515.517-.772.776z" />
</svg>
