<svg xmlns="http://www.w3.org/2000/svg" width="23" height="23" viewBox="0 0 23 23">
    <path fill="#A8AFB9" fill-rule="evenodd" d="M11.533 23c-.56-.565-.965-.974-1.216-1.225-1.685-1.688-3.33-3.414-4.868-5.24-1.347-1.598-2.612-3.256-3.673-5.064-.537-.915-1.01-1.862-1.348-2.873C.21 7.947.04 7.283.008 6.593c-.051-1.102.16-2.16.59-3.17C1.01 2.45 1.62 1.63 2.476 1.01 3.843.022 5.357-.172 6.964.206c1.072.253 1.993.8 2.811 1.534a10.906 10.906 0 0 1 1.62 1.856c.038.053.077.104.12.161.038-.051.068-.092.096-.133.423-.603.887-1.171 1.422-1.678A7.122 7.122 0 0 1 15.042.58 6.695 6.695 0 0 1 17.12.04c.422-.042.845-.065 1.267.004 1 .162 1.858.618 2.59 1.31 1.306 1.23 1.903 2.787 2.012 4.555.065 1.064-.184 2.078-.546 3.066-.514 1.404-1.25 2.692-2.073 3.932-1.314 1.977-2.832 3.79-4.425 5.541-1.272 1.4-2.61 2.733-3.947 4.07-.158.158-.31.321-.466.482z"/>
</svg>
