<svg xmlns="http://www.w3.org/2000/svg" width="118" height="19" viewBox="0 0 118 19">
    <path fill="#5A96F2" fill-rule="nonzero" d="M11.633 18.372c-.757 0-1.367-.379-2.002-1.258L5.58 11.536 4.04 13.098v3.125c0 1.392-.708 2.173-1.978 2.173C.757 18.396 0 17.59 0 16.223V3.663C0 2.27.72 1.488 2.014 1.488c1.294 0 2.027.794 2.027 2.173V8.46h.22l5.602-6.09c.55-.599 1.013-.855 1.587-.855 1.001 0 1.77.78 1.77 1.77 0 .5-.195.879-.732 1.465L8.569 8.984l4.175 5.64c.647.867.83 1.282.83 1.843 0 1.123-.793 1.905-1.94 1.905zm3.45-16.468c0-1.11.891-1.904 2.112-1.904 1.233 0 2.112.793 2.112 1.904 0 1.123-.88 1.917-2.112 1.917-1.22 0-2.112-.794-2.112-1.917zm4.077 14.344c0 1.403-.72 2.148-1.965 2.148s-1.953-.745-1.953-2.148V7.275c0-1.403.72-2.148 1.953-2.148 1.245 0 1.965.745 1.965 2.148v8.973zm5.916-3.956c0 1.954.854 3.101 2.295 3.101 1.44 0 2.331-1.147 2.331-3.027V11.01c0-1.77-.94-2.93-2.356-2.93-1.428 0-2.27 1.16-2.27 3.1v1.111zm4.468 3.895c-.44 1.355-1.917 2.233-3.736 2.233-2.966 0-4.785-2.221-4.785-5.883v-1.624c0-3.662 1.831-5.871 4.797-5.871 1.807 0 3.199.817 3.687 2.148h.195V2.783c0-1.391.696-2.16 1.953-2.16 1.27 0 1.966.769 1.966 2.16v13.465c0 1.391-.684 2.148-1.941 2.148-1.135 0-1.843-.671-1.941-1.843v-.366h-.195zm5.854-.501c0-.806.574-1.355 1.428-1.355.452 0 .806.159 1.453.55 1.038.646 1.795.915 2.698.915 1.123 0 1.806-.44 1.806-1.172 0-.647-.537-1.099-1.733-1.367l-1.819-.39c-2.514-.526-3.662-1.734-3.662-3.724 0-2.539 2.197-4.224 5.59-4.224 1.222 0 2.381.232 3.309.684 1.05.488 1.636 1.209 1.636 2.026 0 .806-.586 1.294-1.428 1.294-.391 0-.806-.122-1.465-.488-.977-.574-1.587-.757-2.259-.757-1.025 0-1.635.513-1.635 1.233 0 .623.44.977 1.452 1.196l2.295.464c2.356.489 3.467 1.697 3.467 3.699 0 2.673-2.148 4.321-5.774 4.321-1.477 0-2.795-.28-3.772-.78-1.025-.526-1.587-1.27-1.587-2.125zm23.097 2.71c-1.257 0-2.014-.806-2.014-2.124V4.919H53.32c-.928 0-1.624-.708-1.624-1.648 0-.952.696-1.66 1.624-1.66h10.388c.928 0 1.611.708 1.611 1.66 0 .94-.683 1.648-1.611 1.648h-3.186v11.353c0 1.318-.77 2.124-2.027 2.124zm14.913-2.307C72.98 17.37 71.6 18.42 69.55 18.42c-2.6 0-4.26-1.464-4.26-4.504V7.263c0-1.416.732-2.136 1.978-2.136 1.232 0 1.953.72 1.953 2.136v5.664c0 1.612.842 2.307 2.014 2.307 1.404 0 2.258-.952 2.258-2.392V7.263c0-1.416.72-2.136 1.953-2.136 1.245 0 1.966.72 1.966 2.136v9.058c0 1.318-.757 2.075-1.917 2.075-1.135 0-1.831-.647-1.892-1.88v-.427h-.195zm18.33.17c0 1.392-.708 2.137-1.966 2.137-1.269 0-1.965-.769-1.965-2.148V10.68c0-1.501-.744-2.392-2.026-2.392-1.38 0-2.27 1.05-2.27 2.77v5.189c0 1.379-.697 2.148-1.954 2.148-1.257 0-1.965-.769-1.965-2.148V7.202c0-1.294.732-2.075 1.916-2.075 1.16 0 1.831.66 1.892 1.892v.476h.196c.476-1.49 1.977-2.453 3.833-2.453 2.746 0 4.309 1.672 4.309 4.614v6.604zm1.606-3.771v-1.44c0-3.687 2.442-6.129 6.116-6.129 3.455 0 5.896 2.417 5.896 5.652 0 1.49-.525 2.027-1.929 2.027h-6.09v.476c.023 1.538 1.049 2.575 2.794 2.575.94 0 1.575-.207 2.076-.573.598-.379.854-.61 1.465-.61.793 0 1.318.512 1.318 1.342 0 .696-.427 1.306-1.172 1.77-.891.635-2.32 1.013-3.967 1.013-4.029 0-6.507-2.295-6.507-6.103zm3.992-2.136h4.321v-.037c0-1.49-.83-2.466-2.111-2.466-1.38 0-2.21 1.001-2.21 2.466v.037zm9.175 5.334c0-.806.574-1.355 1.428-1.355.452 0 .806.159 1.453.55 1.037.646 1.794.915 2.698.915 1.123 0 1.806-.44 1.806-1.172 0-.647-.537-1.099-1.733-1.367l-1.819-.39c-2.515-.526-3.662-1.734-3.662-3.724 0-2.539 2.197-4.224 5.59-4.224 1.221 0 2.381.232 3.309.684 1.05.488 1.636 1.209 1.636 2.026 0 .806-.586 1.294-1.429 1.294-.39 0-.805-.122-1.465-.488-.976-.574-1.586-.757-2.258-.757-1.025 0-1.636.513-1.636 1.233 0 .623.44.977 1.453 1.196l2.295.464c2.356.489 3.467 1.697 3.467 3.699 0 2.673-2.149 4.321-5.774 4.321-1.477 0-2.796-.28-3.772-.78-1.026-.526-1.587-1.27-1.587-2.125z"/>
</svg>
