<svg xmlns="http://www.w3.org/2000/svg" width="147" height="23" viewBox="0 0 147 23">
    <path fill="#2E4D74" fill-rule="nonzero" d="M14.484 22.728c-.942 0-1.702-.468-2.493-1.555L6.946 14.27 5.03 16.204v3.866c0 1.722-.882 2.688-2.463 2.688C.942 22.758 0 21.762 0 20.07V4.53C0 2.81.897 1.843 2.508 1.843c1.61 0 2.523.982 2.523 2.689v5.935h.273L12.28 2.93c.684-.74 1.262-1.057 1.976-1.057 1.246 0 2.204.966 2.204 2.19 0 .619-.244 1.087-.912 1.812l-4.879 5.24 5.198 6.977c.805 1.072 1.033 1.586 1.033 2.28 0 1.39-.988 2.356-2.416 2.356zm4.295-20.372C18.779.982 19.889 0 21.409 0c1.534 0 2.628.982 2.628 2.356 0 1.39-1.094 2.37-2.629 2.37-1.52 0-2.63-.98-2.63-2.37zM23.855 20.1c0 1.737-.897 2.658-2.447 2.658s-2.431-.92-2.431-2.658V9c0-1.736.896-2.657 2.431-2.657 1.55 0 2.447.921 2.447 2.658v11.1zm7.365-4.893c0 2.417 1.064 3.836 2.857 3.836 1.794 0 2.903-1.42 2.903-3.745v-1.676c0-2.19-1.17-3.625-2.933-3.625-1.778 0-2.827 1.435-2.827 3.836v1.374zm5.563 4.818c-.547 1.676-2.386 2.764-4.65 2.764-3.694 0-5.959-2.749-5.959-7.28v-2.008c0-4.53 2.28-7.264 5.973-7.264 2.25 0 3.982 1.012 4.59 2.658h.243V3.443c0-1.721.867-2.673 2.432-2.673 1.58 0 2.447.952 2.447 2.673V20.1c0 1.722-.851 2.658-2.417 2.658-1.413 0-2.294-.83-2.416-2.28v-.453h-.243zm7.289-.62c0-.996.714-1.676 1.778-1.676.562 0 1.003.197 1.809.68 1.291.8 2.234 1.133 3.358 1.133 1.399 0 2.25-.544 2.25-1.45 0-.8-.669-1.36-2.158-1.691l-2.265-.484c-3.13-.65-4.56-2.144-4.56-4.606 0-3.14 2.736-5.225 6.961-5.225 1.52 0 2.964.287 4.12.846 1.306.604 2.036 1.495 2.036 2.507 0 .996-.73 1.6-1.779 1.6-.486 0-1.003-.15-1.823-.604-1.216-.71-1.976-.936-2.812-.936-1.277 0-2.037.634-2.037 1.525 0 .77.548 1.208 1.81 1.48l2.856.574c2.934.604 4.317 2.1 4.317 4.576 0 3.307-2.675 5.346-7.19 5.346-1.838 0-3.48-.347-4.695-.967-1.277-.649-1.976-1.57-1.976-2.627zm28.757 3.353c-1.566 0-2.508-.996-2.508-2.627V6.086h-3.936c-1.155 0-2.022-.876-2.022-2.039 0-1.178.867-2.054 2.022-2.054h12.933c1.155 0 2.006.876 2.006 2.054 0 1.163-.85 2.039-2.006 2.039h-3.966v14.045c0 1.63-.958 2.627-2.523 2.627zm18.566-2.854c-.532 1.586-2.25 2.885-4.803 2.885-3.237 0-5.304-1.813-5.304-5.573v-8.23c0-1.752.912-2.643 2.462-2.643 1.535 0 2.432.89 2.432 2.643v7.007c0 1.993 1.049 2.854 2.508 2.854 1.747 0 2.811-1.178 2.811-2.96V8.986c0-1.752.897-2.643 2.432-2.643 1.55 0 2.447.89 2.447 2.643V20.19c0 1.631-.942 2.567-2.386 2.567-1.414 0-2.28-.8-2.356-2.325v-.529h-.243zm22.821.212c0 1.721-.881 2.642-2.446 2.642-1.581 0-2.447-.951-2.447-2.658v-6.886c0-1.857-.927-2.96-2.523-2.96-1.718 0-2.827 1.299-2.827 3.428V20.1c0 1.707-.866 2.658-2.432 2.658-1.565 0-2.447-.951-2.447-2.658V8.91c0-1.6.912-2.567 2.386-2.567 1.444 0 2.28.815 2.356 2.34v.59h.243c.593-1.843 2.462-3.036 4.773-3.036 3.42 0 5.364 2.069 5.364 5.709v8.17zm2-4.667v-1.782c0-4.56 3.04-7.581 7.615-7.581 4.301 0 7.34 2.99 7.34 6.992 0 1.843-.653 2.507-2.4 2.507h-7.585v.589c.03 1.903 1.307 3.186 3.48 3.186 1.171 0 1.961-.256 2.585-.71.744-.467 1.063-.754 1.823-.754.988 0 1.642.634 1.642 1.66 0 .862-.532 1.617-1.46 2.19-1.109.786-2.887 1.254-4.939 1.254-5.015 0-8.1-2.84-8.1-7.55zm4.97-2.643h5.38v-.045c0-1.842-1.033-3.05-2.629-3.05-1.717 0-2.75 1.238-2.75 3.05v.045zm11.423 6.6c0-.997.715-1.677 1.779-1.677.562 0 1.003.197 1.808.68 1.292.8 2.234 1.133 3.359 1.133 1.398 0 2.25-.544 2.25-1.45 0-.8-.67-1.36-2.159-1.691l-2.264-.484c-3.131-.65-4.56-2.144-4.56-4.606 0-3.14 2.736-5.225 6.961-5.225 1.52 0 2.964.287 4.119.846 1.307.604 2.036 1.495 2.036 2.507 0 .996-.73 1.6-1.778 1.6-.486 0-1.003-.15-1.824-.604-1.216-.71-1.975-.936-2.811-.936-1.277 0-2.037.634-2.037 1.525 0 .77.547 1.208 1.809 1.48l2.857.574c2.933.604 4.316 2.1 4.316 4.576 0 3.307-2.675 5.346-7.189 5.346-1.839 0-3.48-.347-4.696-.967-1.276-.649-1.976-1.57-1.976-2.627z"/>
</svg>
