<svg xmlns="http://www.w3.org/2000/svg" width="24" height="27" viewBox="0 0 24 27">
    <path fill="#A8AFB9" fill-rule="evenodd" d="M7.924 13.701c0 2.098-1.76 3.799-3.953 3.799C1.778 17.5 0 15.8 0 13.701c0-2.098 1.778-3.798 3.97-3.798.987 0 1.4.344 2.094.913V2.52a.47.47 0 0 1 .38-.454L16.406.012c.304-.066.593.155.593.453v3.169c0 .22-.161.41-.386.457L8.3 5.795a.461.461 0 0 0-.377.446v7.46zm3.723-4.73c0-.225.156-.42.375-.47a1022.59 1022.59 0 0 0 11.4-2.49.475.475 0 0 1 .578.465v13.265a2.532 2.532 0 0 1-.013.13 3.939 3.939 0 0 1-3.932 3.892 3.939 3.939 0 0 1-3.933-3.945 3.939 3.939 0 0 1 3.933-3.945c.994 0 1.529.37 2.222.98v-5.8a.486.486 0 0 0-.593-.475l-7.936 1.892a.487.487 0 0 0-.377.475v10.008l-.006.061v.04A3.939 3.939 0 0 1 9.434 27 3.939 3.939 0 0 1 5.5 23.055a3.939 3.939 0 0 1 3.933-3.945c.99 0 1.522.367 2.214.974V8.972z"/>
</svg>
