<svg xmlns="http://www.w3.org/2000/svg" width="137" height="157" viewBox="0 0 137 157">
    <g fill="none" fill-rule="evenodd">
        <path fill="#659CF3" d="M50.78 85.775c0 11.59-9.283 20.987-20.847 20.987-11.564 0-20.94-9.396-20.94-20.987 0-11.592 9.376-20.988 20.94-20.988 5.202 0 7.377 1.901 11.039 5.049V24a2.57 2.57 0 0 1 1.998-2.508l52.54-11.353a2.563 2.563 0 0 1 3.128 2.504v17.508c0 1.218-.849 2.27-2.037 2.526l-43.834 9.417a2.518 2.518 0 0 0-1.987 2.464V85.774zm20.522-24.787c0-1.202.83-2.243 1.997-2.507 24.875-5.324 43.2-9.317 54.974-11.98l5.649-1.277c1.578-.356 3.078.849 3.078 2.474v70.642c-.017.232-.04.462-.068.689-.149 11.475-9.455 20.731-20.914 20.731-11.552 0-20.916-9.406-20.916-21.01 0-11.604 9.364-21.01 20.916-21.01 5.29 0 8.133 1.971 11.816 5.224V72.072c0-1.663-1.537-2.896-3.152-2.528L82.48 79.621a2.59 2.59 0 0 0-2.01 2.529v53.295c-.008.11-.017.219-.028.328l.001.216c0 11.604-9.364 21.011-20.916 21.011-11.551 0-20.916-9.407-20.916-21.01 0-11.605 9.365-21.011 20.916-21.011 5.27 0 8.098 1.958 11.776 5.19v-59.18z"/>
        <path fill="#FFF" d="M41.782 75.678c0 11.588-9.282 20.982-20.845 20.982C9.374 96.66 0 87.266 0 75.678s9.374-20.982 20.937-20.982c5.202 0 9.96 1.901 13.622 5.047V13.921c0-1.201.83-2.242 1.998-2.507L86.509.064a2.563 2.563 0 0 1 3.128 2.504V20.07c0 1.218-.849 2.27-2.037 2.525L43.77 32.01a2.518 2.518 0 0 0-1.988 2.463v41.205zM64.092 50.1c0-1.201.83-2.242 1.997-2.506l58.63-13.253c1.578-.357 3.078.848 3.078 2.473v70.622c-.017.232-.04.461-.068.688-.149 11.472-9.455 20.726-20.913 20.726-11.55 0-20.914-9.404-20.914-21.005 0-11.6 9.364-21.004 20.914-21.004 5.29 0 10.12 1.972 13.803 5.223V61.182c0-1.662-1.537-2.895-3.151-2.527L73.28 68.73a2.59 2.59 0 0 0-2.01 2.528v53.28c-.008.11-.017.219-.027.327l.001.217c0 11.6-9.364 21.005-20.914 21.005-11.551 0-20.915-9.405-20.915-21.005s9.364-21.005 20.915-21.005c5.27 0 10.084 1.958 13.762 5.188V50.101z"/>
    </g>
</svg>
