<svg xmlns="http://www.w3.org/2000/svg" width="24" height="24" viewBox="0 0 24 24">
    <path fill="#A8AFB9" fill-rule="nonzero" d="M23.598 21.66a1.37 1.37 0 1 1-1.938 1.938l-6.577-6.577c-3.698 2.755-8.964 2.465-12.319-.89-3.685-3.686-3.685-9.682 0-13.367 3.685-3.685 9.681-3.685 13.367 0 3.355 3.355 3.645 8.62.89 12.319l6.577 6.577zM4.931 13.962a6.393 6.393 0 0 0 9.031 0 6.393 6.393 0 0 0 0-9.03 6.393 6.393 0 0 0-9.03 0 6.393 6.393 0 0 0 0 9.03zm.537-4.186a.436.436 0 1 1-.872 0 5.18 5.18 0 0 1 5.18-5.18.436.436 0 1 1 0 .872 4.308 4.308 0 0 0-4.308 4.308z"/>
</svg>
