<svg xmlns="http://www.w3.org/2000/svg" viewBox="0 0 47 34">
  <path fill="#FFF" fill-rule="evenodd" d="M37.061 2.26v3.358c-5.85.198-9.724 1.438-12.428 3.385-1.905 1.371-3.14 3.036-4.134 4.713-.995-1.677-2.23-3.342-4.134-4.713C13.41 6.876 9.085 5.579 2.28 5.579a1.656 1.656 0 0 0-1.454.823 1.663 1.663 0 0 0 0 1.674c.301.517.857.831 1.454.823 6.39 0 9.92 1.193 12.153 2.8 1.994 1.436 3.092 3.319 4.2 5.473-1.117 2.177-2.213 4.078-4.219 5.524-2.23 1.608-5.753 2.801-12.134 2.801a1.656 1.656 0 0 0-1.454.823 1.663 1.663 0 0 0 0 1.674c.301.517.857.831 1.454.823 6.797 0 11.118-1.296 14.068-3.424 1.918-1.382 3.154-3.062 4.15-4.752.997 1.69 2.234 3.37 4.151 4.752 2.7 1.947 6.57 3.186 12.412 3.385v3.359c0 1.367 1.558 2.148 2.65 1.329l6.625-4.98a1.662 1.662 0 0 0 0-2.658l-6.625-4.98a1.658 1.658 0 0 0-2.65 1.33v3.28c-5.333-.192-8.452-1.301-10.477-2.762-2.006-1.446-3.103-3.347-4.219-5.524 1.107-2.154 2.206-4.037 4.2-5.472 2.029-1.461 5.154-2.57 10.496-2.762v3.28c0 1.368 1.558 2.15 2.65 1.33l6.625-4.98a1.662 1.662 0 0 0 0-2.658L39.71.93a1.659 1.659 0 0 0-2.65 1.33z"/>
</svg>
